<?xml version="1.0" encoding="UTF-8"?>
<svg xmlns="http://www.w3.org/2000/svg" id="Layer_2" data-name="Layer 1" viewBox="0 0 24 24">
<path d="m11.206,14.656c-.246,1.557-.756,3.155-1.257,4.66-.14.419-.53.684-.949.684-.104,0-.211-.017-.316-.052-.524-.174-.807-.74-.632-1.265.238-.715.479-1.45.687-2.184-.319.005-.655-.15-.852-.445-.306-.46-.182-1.08.277-1.387l1.5-1c.332-.221.761-.223,1.094-.01.334.214.51.605.448.998Zm6.792-4.209c0,4.144-.977,8.042-1.798,10.579-.575,1.779-2.223,2.975-4.1,2.975H3.322c-1.121,0-2.208-.582-2.837-1.52-.581-.864-.695-1.895-.314-2.825.823-2.012,2.356-5.757,2.406-9.17.004-.289.133-.561.353-.748.491-.408,1.237-.736,1.839-.739.612-.004,1.225.202,1.724.616.608.504,1.48.504,2.087,0,.99-.821,2.428-.821,3.418,0,.607.504,1.479.504,2.087,0,.502-.416,1.119-.622,1.735-.616.598.006,1.281.277,1.769.682.246.18.396.461.409.766Zm-2.004.583c-.213-.063-.454-.021-.631.125-1.313,1.091-3.326,1.091-4.641,0-.25-.208-.614-.206-.864,0-1.315,1.091-3.327,1.091-4.642,0-.184-.152-.438-.191-.657-.116-.158,3.163-1.308,6.369-2.539,9.375-.17.415.005.775.124.953.262.391.713.634,1.177.634h8.778c1.007,0,1.89-.639,2.197-1.59.741-2.29,1.618-5.733,1.697-9.381Zm8.006-7.029v14c0,2.206-1.794,4-4,4h-1c-.552,0-1-.447-1-1s.448-1,1-1h1c1.103,0,2-.897,2-2V7c-.614,0-1.179-.23-1.63-.616-.299-.256-.668-.384-1.037-.384s-.738.128-1.037.384c-.451.386-1.016.616-1.63.616s-1.179-.23-1.63-.616c-.299-.256-.668-.384-1.037-.384s-.738.128-1.037.384c-.451.386-1.016.616-1.63.616s-1.179-.23-1.63-.616c-.299-.256-.668-.384-1.037-.384s-.738.128-1.037.384l-.014.012c-.637.539-1.616.068-1.616-.767v-1.629C6,1.794,7.794,0,10,0h10c2.206,0,4,1.794,4,4Zm-2,0c0-1.103-.897-2-2-2h-10c-1.103,0-2,.897-2,2v.056c.207-.035.428-.056.667-.056.856,0,1.687.307,2.338.865.104.089.215.135.328.135s.224-.045.328-.135c.652-.558,1.482-.865,2.338-.865s1.687.307,2.338.865c.104.089.215.135.328.135s.224-.045.328-.135c.652-.558,1.482-.865,2.338-.865s1.687.307,2.338.865c.104.089.215.135.328.135v-1Z" fill="#1CB2E9"/>
<path d="M8.46519 15.0922C8.26491 15.3634 8.38174 15.838 8.46519 16.0414C8.65294 16.2674 9.15363 16.5295 9.65432 15.7702C10.155 15.0108 10.9478 14.9113 11.2815 14.9565C10.9811 16.0956 9.07018 17.6008 8.15226 18.211C7.83933 17.9398 7.21347 18.0076 6.83795 18.211C6.46244 18.4144 6.33727 19.228 6.83795 19.7026C7.2385 20.0823 8.08967 19.8608 8.46519 19.7026C9.7169 20.3128 11.219 19.8382 11.7196 19.567C12.2203 19.2958 12.2203 18.211 11.7196 17.9398C11.3191 17.7228 10.9686 18.2562 10.8434 18.55H10.0924C10.6557 18.0076 11.8949 16.7194 12.3455 15.9058C12.9088 14.8887 12.5333 13.804 11.2815 13.5328C10.0298 13.2616 8.71553 14.7532 8.46519 15.0922Z" fill="#1CB2E9"/>
</svg>
